<?xml version="1.0" encoding="iso-8859-1"?>
<!-- Uploaded to: SVG Repo, www.svgrepo.com, Generator: SVG Repo Mixer Tools -->
<svg height="800px" width="800px" version="1.1" id="Layer_1" xmlns="http://www.w3.org/2000/svg" xmlns:xlink="http://www.w3.org/1999/xlink" 
	 viewBox="0 0 512 512" xml:space="preserve">
<path style="fill:#FFD155;" d="M436.376,512H164.221c-11.548,0-20.911-9.363-20.911-20.911v-88.867
	c0-11.548,9.363-20.911,20.911-20.911h162.647V109.778c0-11.548,9.363-20.911,20.911-20.911h88.598
	c11.548,0,20.911,9.363,20.911,20.911V491.09C457.287,502.639,447.925,512,436.376,512z"/>
<path style="fill:#FFDA79;" d="M347.779,423.134H75.623c-11.548,0-20.911-9.363-20.911-20.911V20.911
	C54.712,9.363,64.075,0,75.623,0h272.156c11.548,0,20.911,9.363,20.911,20.911v381.312
	C368.69,413.772,359.327,423.134,347.779,423.134z"/>
<g>
	<path style="fill:#36495E;" d="M274.61,203.183H148.788c-11.548,0-20.911-9.363-20.911-20.911v-78.127
		c0-11.548,9.363-20.911,20.911-20.911H274.61c11.548,0,20.911,9.363,20.911,20.911v78.127
		C295.521,193.822,286.16,203.183,274.61,203.183z"/>
	<path style="fill:#36495E;" d="M274.61,273.43H148.788c-11.548,0-20.911-9.363-20.911-20.911c0-11.548,9.363-20.911,20.911-20.911
		H274.61c11.548,0,20.911,9.363,20.911,20.911C295.521,264.067,286.16,273.43,274.61,273.43z"/>
	<path style="fill:#36495E;" d="M274.61,337.118H148.788c-11.548,0-20.911-9.363-20.911-20.911s9.363-20.911,20.911-20.911H274.61
		c11.548,0,20.911,9.363,20.911,20.911S286.16,337.118,274.61,337.118z"/>
</g>
</svg>