<?xml version="1.0" encoding="UTF-8"?>
<svg id="Layer_2" xmlns="http://www.w3.org/2000/svg" viewBox="0 0 622 622">
  <defs>
    <style>
      .cls-1 {
        fill: #facc15;
      }

      .cls-2 {
        fill: #231f20;
      }
    </style>
  </defs>
  <g id="Layer_1-2" data-name="Layer_1">
    <rect class="cls-1" width="622" height="622" rx="175" ry="175"/>
    <path class="cls-2" d="M243.12,197.88c0-37.49,30.39-67.88,67.88-67.88s67.88,30.39,67.88,67.88-30.39,67.88-67.88,67.88-67.88-30.39-67.88-67.88ZM299.69,305.34v186.66l-34.22-17.11c-14.78-7.35-30.76-12.02-47.23-13.65l-67.88-6.79c-11.52-1.2-20.36-10.89-20.36-22.55v-143.53c0-12.51,10.11-22.62,22.62-22.62h21.42c44.97,0,88.8,13.86,125.64,39.59ZM322.31,492v-186.66c36.84-25.74,80.67-39.59,125.64-39.59h21.42c12.51,0,22.62,10.11,22.62,22.62v143.53c0,11.6-8.84,21.35-20.36,22.48l-67.88,6.79c-16.4,1.63-32.45,6.29-47.23,13.65l-34.22,17.18Z"/>
  </g>
</svg>